# xmcd CD database file
#
# Track frame offsets:
#	150
#	22277
#	43810
#	48596
#	68866
#	94759
#	113868
#	123098
#	147781
#	178772
#
# Disc length: 2630 seconds
#
# Revision: 0
# Processed by: cddbd v1.4PL0 Copyright (c) Steve Scherf et al.
# Submitted via: CDex 1.51
#
DISCID=900a440a
DTITLE=Corciolli  -  Unio Celestia
DYEAR=2001
DGENRE=New Age
TTITLE0=Alarum
TTITLE1=Spiritus
TTITLE2=Trinum Perfectum
TTITLE3=Rubor
TTITLE4=Angelus
TTITLE5=Oratio
TTITLE6=Sanctus
TTITLE7=Gloriosa
TTITLE8=Toledo
TTITLE9=Ilusia
EXTD=YEAR: 2001
EXTT0=
EXTT1=
EXTT2=
EXTT3=
EXTT4=
EXTT5=
EXTT6=
EXTT7=
EXTT8=
EXTT9=
PLAYORDER=
